<?xml version="1.0" encoding="UTF-8" standalone="no"?>
<svg
   inkscape:export-ydpi="129.68866"
   inkscape:export-xdpi="129.68866"
   inkscape:export-filename="octocat.png"
   inkscape:version="1.2.2 (b0a8486, 2022-12-01)"
   sodipodi:docname="gitjutsu.svg"
   id="svg18"
   version="1.1"
   viewBox="-0.2 -1 379 334"
   xmlns:inkscape="http://www.inkscape.org/namespaces/inkscape"
   xmlns:sodipodi="http://sodipodi.sourceforge.net/DTD/sodipodi-0.dtd"
   xmlns:xlink="http://www.w3.org/1999/xlink"
   xmlns="http://www.w3.org/2000/svg"
   xmlns:svg="http://www.w3.org/2000/svg">
  <defs
     id="defs22">
    <radialGradient
       id="gr"
       cx="150"
       cy="150"
       fx="150"
       fy="150"
       r="150"
       gradientUnits="userSpaceOnUse"
       gradientTransform="matrix(0.11788735,0,0,0.1708728,124.34991,101.98591)">
      <stop
         offset="0"
         style="stop-color:#660000;stop-opacity:1.0"
         id="st1" />
      <stop
         style="stop-color:#c30000;stop-opacity:1.0"
         offset="0.5"
         id="st2" />
      <stop
         style="stop-color:#a00000;stop-opacity:1.0"
         offset="1"
         id="st3" />
    </radialGradient>
    <radialGradient
       id="gr-7"
       cx="150"
       cy="150"
       fx="150"
       fy="150"
       r="150"
       gradientUnits="userSpaceOnUse"
       gradientTransform="matrix(0.11788735,0,0,0.1708728,219.04909,100.81432)">
      <stop
         offset="0"
         style="stop-color:#660000;stop-opacity:1.0"
         id="st1-3" />
      <stop
         style="stop-color:#c30000;stop-opacity:1.0"
         offset="0.5"
         id="st2-7" />
      <stop
         style="stop-color:#a00000;stop-opacity:1.0"
         offset="1"
         id="st3-9" />
    </radialGradient>
    <radialGradient
       id="gr-4"
       cx="150"
       cy="150"
       fx="150"
       fy="150"
       r="150"
       gradientUnits="userSpaceOnUse"
       gradientTransform="translate(319.6644,83.932202)">
      <stop
         offset="0"
         style="stop-color:#660000; stop-opacity: 1;"
         id="st1-36" />
      <stop
         style="stop-color:#c30000; stop-opacity: 1;"
         offset="0.5"
         id="st2-5" />
      <stop
         style="stop-color:#a00000; stop-opacity: 1;"
         offset="1"
         id="st3-95" />
    </radialGradient>
    <radialGradient
       id="gr-8"
       cx="150"
       cy="150"
       fx="150"
       fy="150"
       r="150"
       gradientUnits="userSpaceOnUse"
       gradientTransform="matrix(0.75558992,0,0,0.26269107,77.520825,254.67684)">
      <stop
         offset="0"
         style="stop-color:#660000;stop-opacity:1.0"
         id="st1-4" />
      <stop
         style="stop-color:#c30000;stop-opacity:1.0"
         offset="0.5"
         id="st2-1" />
      <stop
         style="stop-color:#a00000;stop-opacity:1.0"
         offset="1"
         id="st3-7" />
    </radialGradient>
    <radialGradient
       id="gr-1"
       cx="150"
       cy="150"
       fx="150"
       fy="150"
       r="150"
       gradientUnits="userSpaceOnUse"
       gradientTransform="matrix(1.1619706,0,0,1.0362569,15.148477,11.730964)">
      <stop
         offset="0"
         style="stop-color:#660000;stop-opacity:1.0"
         id="st1-6" />
      <stop
         style="stop-color:#c30000;stop-opacity:1.0"
         offset="0.5"
         id="st2-12" />
      <stop
         style="stop-color:#a00000;stop-opacity:1.0"
         offset="1"
         id="st3-0" />
    </radialGradient>
  </defs>
  <sodipodi:namedview
     id="namedview20"
     pagecolor="#ffffff"
     bordercolor="#000000"
     borderopacity="0.25"
     inkscape:showpageshadow="2"
     inkscape:pageopacity="0.0"
     inkscape:pagecheckerboard="0"
     inkscape:deskcolor="#d1d1d1"
     showgrid="false"
     inkscape:zoom="0.70658683"
     inkscape:cx="256.86864"
     inkscape:cy="181.15254"
     inkscape:window-width="1280"
     inkscape:window-height="456"
     inkscape:window-x="0"
     inkscape:window-y="25"
     inkscape:window-maximized="0"
     inkscape:current-layer="svg18" />
  <ellipse
     style="fill:url(#gr-1);stroke:#000000;stroke-width:10.9732;stroke-opacity:1.0"
     cx="189.44408"
     cy="167.16949"
     id="iris-4"
     rx="168.48573"
     ry="150.25723" />
  <g
     id="tomoe 1-4"
     transform="matrix(1.2278411,0,0,1.1118877,5.2679049,0.3863355)">
    <path
       style="fill:#000000;fill-opacity:1.0"
       d="M 107.5,150 C 110,100 130,20 150,0 c 20,20 40,100 42.5,150 -24.5,0 -60.5,0 -85,0 z"
       id="tomoe 1a-5" />
    <path
       style="fill:#000000;fill-opacity:1.0"
       d="M 250.2,181.2 C 261.8,142 250.4,46.8 157.4,10 c -2.5,21.7 3.7,41.3 21.4,57.3 37.8,8.7 79.5,51.3 65.8,107.9 -19.7,18 -2.3,28.1 5.6,6 z"
       id="tomoe 1b-97" />
  </g>
  <ellipse
     style="fill:#a00000;stroke-width:1.16843;fill-opacity:1.0"
     cx="189.44408"
     cy="167.16949"
     id="center-9"
     rx="34.379551"
     ry="31.132856" />
  <ellipse
     style="fill:url(#gr-8);stroke:#000000;stroke-width:4.4552;stroke-opacity:1.0"
     cx="190.85933"
     cy="294.08051"
     id="iris-1"
     rx="109.56057"
     ry="38.090206" />
  <g
     id="shadow-legs"
     fill="#7DBBE6"
     style="fill:#a00000;fill-opacity:1.0">
    <path
       d="m161.85 331.22v-26.5c0-3.422-.619-6.284-1.653-8.701 6.853 5.322 7.316 18.695 7.316 18.695v17.004c6.166.481 12.534.773 19.053.861l-.172-16.92c-.944-23.13-20.769-25.961-20.769-25.961-7.245-1.645-7.137 1.991-6.409 4.34-7.108-12.122-26.158-10.556-26.158-10.556-6.611 2.357-.475 6.607-.475 6.607 10.387 3.775 11.33 15.105 11.33 15.105v23.622c5.72.98 11.71 1.79 17.94 2.4z"
       id="path3"
       style="fill:#a00000;fill-opacity:1.0" />
    <path
       d="m245.4 283.48s-19.053-1.566-26.16 10.559c.728-2.35.839-5.989-6.408-4.343 0 0-19.824 2.832-20.768 25.961l-.174 16.946c6.509-.025 12.876-.254 19.054-.671v-17.219s.465-13.373 7.316-18.695c-1.034 2.417-1.653 5.278-1.653 8.701v26.775c6.214-.544 12.211-1.279 17.937-2.188v-24.113s.944-11.33 11.33-15.105c0-.01 6.13-4.26-.48-6.62z"
       id="path5"
       style="fill:#a00000;fill-opacity:1.0" />
  </g>
  <path
     id="cat"
     d="m378.18 141.32l.28-1.389c-31.162-6.231-63.141-6.294-82.487-5.49 3.178-11.451 4.134-24.627 4.134-39.32 0-21.073-7.917-37.931-20.77-50.759 2.246-7.25 5.246-23.351-2.996-43.963 0 0-14.541-4.617-47.431 17.396-12.884-3.22-26.596-4.81-40.328-4.81-15.109 0-30.376 1.924-44.615 5.83-33.94-23.154-48.923-18.411-48.923-18.411-9.78 24.457-3.733 42.566-1.896 47.063-11.495 12.406-18.513 28.243-18.513 47.659 0 14.658 1.669 27.808 5.745 39.237-19.511-.71-50.323-.437-80.373 5.572l.276 1.389c30.231-6.046 61.237-6.256 80.629-5.522.898 2.366 1.899 4.661 3.021 6.879-19.177.618-51.922 3.062-83.303 11.915l.387 1.36c31.629-8.918 64.658-11.301 83.649-11.882 11.458 21.358 34.048 35.152 74.236 39.484-5.704 3.833-11.523 10.349-13.881 21.374-7.773 3.718-32.379 12.793-47.142-12.599 0 0-8.264-15.109-24.082-16.292 0 0-15.344-.235-1.059 9.562 0 0 10.267 4.838 17.351 23.019 0 0 9.241 31.01 53.835 21.061v32.032s-.943 11.33-11.33 15.105c0 0-6.137 4.249.475 6.606 0 0 28.792 2.361 28.792-21.238v-34.929s-1.142-13.852 5.663-18.667v57.371s-.47 13.688-7.551 18.881c0 0-4.723 8.494 5.663 6.137 0 0 19.824-2.832 20.769-25.961l.449-58.06h4.765l.453 58.06c.943 23.129 20.768 25.961 20.768 25.961 10.383 2.357 5.663-6.137 5.663-6.137-7.08-5.193-7.551-18.881-7.551-18.881v-56.876c6.801 5.296 5.663 18.171 5.663 18.171v34.929c0 23.6 28.793 21.238 28.793 21.238 6.606-2.357.474-6.606.474-6.606-10.386-3.775-11.33-15.105-11.33-15.105v-45.786c0-17.854-7.518-27.309-14.87-32.3 42.859-4.25 63.426-18.089 72.903-39.591 18.773.516 52.557 2.803 84.873 11.919l.384-1.36c-32.131-9.063-65.692-11.408-84.655-11.96.898-2.172 1.682-4.431 2.378-6.755 19.25-.80 51.38-.79 82.66 5.46z" />
  <path
     id="face"
     fill="#F4CBB2"
     d="m258.19 94.132c9.231 8.363 14.631 18.462 14.631 29.343 0 50.804-37.872 52.181-84.585 52.181-46.721 0-84.589-7.035-84.589-52.181 0-10.809 5.324-20.845 14.441-29.174 15.208-13.881 40.946-6.531 70.147-6.531 29.07-.004 54.72-7.429 69.95 6.357z"
     style="fill-opacity:1.0;fill:#f4cbb2" />
  <path
     id="eyes"
     fill="#FFF"
     d="m160.1 126.06 c0 13.994-7.88 25.336-17.6 25.336-9.72 0-17.6-11.342-17.6-25.336 0-13.992 7.88-25.33 17.6-25.33 9.72.01 17.6 11.34 17.6 25.33z m94.43 0 c0 13.994-7.88 25.336-17.6 25.336-9.72 0-17.6-11.342-17.6-25.336 0-13.992 7.88-25.33 17.6-25.33 9.72.01 17.6 11.34 17.6 25.33z"
     style="fill-opacity:0.0;fill:#000000" />
  <g
     fill="#AD5C51"
     id="g14"
     style="fill-opacity:1.0;fill:#ad5c51">
    <path
       id="pupils"
       d="m154.46 126.38 c0 9.328-5.26 16.887-11.734 16.887s-11.733-7.559-11.733-16.887c0-9.331 5.255-16.894 11.733-16.894 6.47 0 11.73 7.56 11.73 16.89z m94.42 0 c0 9.328-5.26 16.887-11.734 16.887s-11.733-7.559-11.733-16.887c0-9.331 5.255-16.894 11.733-16.894 6.47 0 11.73 7.56 11.73 16.89z"
       style="fill-opacity:1.0;fill:#ad5c51" />
    <circle
       id="nose"
       cx="188.5"
       cy="148.56"
       r="4.401"
       style="fill-opacity:1.0;fill:#ad5c51" />
    <path
       id="mouth"
       d="m178.23 159.69c-.26-.738.128-1.545.861-1.805.737-.26 1.546.128 1.805.861 1.134 3.198 4.167 5.346 7.551 5.346s6.417-2.147 7.551-5.346c.26-.738 1.067-1.121 1.805-.861s1.121 1.067.862 1.805c-1.529 4.324-5.639 7.229-10.218 7.229s-8.68-2.89-10.21-7.22z"
       style="fill-opacity:1.0;fill:#ad5c51" />
  </g>
  <path
     id="octo"
     fill="#C3E4D8"
     d="m80.641 179.82 c0 1.174-1.376 2.122-3.07 2.122-1.693 0-3.07-.948-3.07-2.122 0-1.175 1.377-2.127 3.07-2.127 1.694 0 3.07.95 3.07 2.13z m8.5 4.72 c0 1.174-1.376 2.122-3.07 2.122-1.693 0-3.07-.948-3.07-2.122 0-1.175 1.377-2.127 3.07-2.127 1.694 0 3.07.95 3.07 2.13z m5.193 6.14 c0 1.174-1.376 2.122-3.07 2.122-1.693 0-3.07-.948-3.07-2.122 0-1.175 1.377-2.127 3.07-2.127 1.694 0 3.07.95 3.07 2.13z m4.72 7.08 c0 1.174-1.376 2.122-3.07 2.122-1.693 0-3.07-.948-3.07-2.122 0-1.175 1.377-2.127 3.07-2.127 1.694 0 3.07.95 3.07 2.13z m5.188 6.61 c0 1.174-1.376 2.122-3.07 2.122-1.693 0-3.07-.948-3.07-2.122 0-1.175 1.377-2.127 3.07-2.127 1.694 0 3.07.95 3.07 2.13z m7.09 5.66 c0 1.174-1.376 2.122-3.07 2.122-1.693 0-3.07-.948-3.07-2.122 0-1.175 1.377-2.127 3.07-2.127 1.694 0 3.07.95 3.07 2.13z m9.91 3.78 c0 1.174-1.376 2.122-3.07 2.122-1.693 0-3.07-.948-3.07-2.122 0-1.175 1.377-2.127 3.07-2.127 1.694 0 3.07.95 3.07 2.13z m9.87 0 c0 1.174-1.376 2.122-3.07 2.122-1.693 0-3.07-.948-3.07-2.122 0-1.175 1.377-2.127 3.07-2.127 1.694 0 3.07.95 3.07 2.13z m10.01 -1.64 c0 1.174-1.376 2.122-3.07 2.122-1.693 0-3.07-.948-3.07-2.122 0-1.175 1.377-2.127 3.07-2.127 1.694 0 3.07.95 3.07 2.13z"
     style="fill:#a00000;fill-opacity:1.0" />
  <path
     id="drop"
     fill="#9CDAF1"
     d="m69.369 186.12l-3.066 10.683s-.8 3.861 2.84 4.546c3.8-.074 3.486-3.627 3.223-4.781z"
     style="fill:#a00000;fill-opacity:1.0" />
  <ellipse
     style="fill:url(#gr);stroke:#000000;stroke-width:1.41929;stroke-opacity:1.0"
     cx="142.03302"
     cy="127.61683"
     id="iris"
     rx="17.093662"
     ry="24.776558" />
  <g
     id="tomoe 1"
     transform="matrix(0.11788735,0,0,0.1708728,124.34991,101.98591)">
    <path
       style="fill:#000000;fill-opacity:1.0"
       d="M 107.5,150 C 110,100 130,20 150,0 c 20,20 40,100 42.5,150 -24.5,0 -60.5,0 -85,0 z"
       id="tomoe 1a" />
    <path
       style="fill:#000000;fill-opacity:1.0"
       d="M 250.2,181.2 C 261.8,142 250.4,46.8 157.4,10 c -2.5,21.7 3.7,41.3 21.4,57.3 37.8,8.7 79.5,51.3 65.8,107.9 -19.7,18 -2.3,28.1 5.6,6 z"
       id="tomoe 1b" />
  </g>
  <use
     xlink:href="#tomoe%201"
     transform="matrix(-0.5,1.2552678,-0.59748207,-0.5,289.2983,13.13575)"
     id="tomoe 2"
     x="0"
     y="0" />
  <use
     xlink:href="#tomoe%201"
     transform="matrix(-0.5,-1.2552678,0.59748207,-0.5,136.80076,369.71472)"
     id="tomoe 3"
     x="0"
     y="0"
     style="display:inline" />
  <ellipse
     style="fill:#a00000;stroke-width:0.141929;fill-opacity:1.0"
     cx="142.03302"
     cy="127.61683"
     id="center"
     rx="3.3008456"
     ry="4.7844386" />
  <ellipse
     style="fill:url(#gr-7);stroke:#000000;stroke-width:1.41929;stroke-opacity:1.0"
     cx="236.73222"
     cy="126.44524"
     id="iris-0"
     rx="17.093662"
     ry="24.776558" />
  <g
     id="tomoe 1-2"
     transform="matrix(0.11788735,0,0,0.1708728,219.04909,100.81432)"
     style="display:inline">
    <path
       style="fill:#000000;fill-opacity:1.0"
       d="M 107.5,150 C 110,100 130,20 150,0 c 20,20 40,100 42.5,150 -24.5,0 -60.5,0 -85,0 z"
       id="tomoe 1a-3" />
    <path
       style="fill:#000000;fill-opacity:1.0"
       d="M 250.2,181.2 C 261.8,142 250.4,46.8 157.4,10 c -2.5,21.7 3.7,41.3 21.4,57.3 37.8,8.7 79.5,51.3 65.8,107.9 -19.7,18 -2.3,28.1 5.6,6 z"
       id="tomoe 1b-9" />
  </g>
  <use
     xlink:href="#tomoe%201"
     transform="matrix(-0.5,1.2552678,-0.59748207,-0.5,383.99748,11.96416)"
     id="tomoe 2-9"
     x="0"
     y="0"
     style="display:inline" />
  <use
     xlink:href="#tomoe%201"
     transform="matrix(-0.5,-1.2552678,0.59748207,-0.5,231.49994,368.54313)"
     id="tomoe 3-7"
     x="0"
     y="0"
     style="display:inline" />
  <ellipse
     style="fill:#a00000;stroke-width:0.141929;fill-opacity:1.0"
     cx="236.73222"
     cy="126.44524"
     id="center-0"
     rx="3.3008456"
     ry="4.7844386" />
</svg>
